Motion_pl02
version=1
nRows=16
nColumns=43
inDegrees=yes
endheader
time	pelvis_tilt	pelvis_list	pelvis_rotation	pelvis_tx	pelvis_ty	pelvis_tz	hip_flexion_r	hip_adduction_r	hip_rotation_r	knee_angle_r	ankle_angle_r	subtalar_angle_r	mtp_angle_r	hip_flexion_l	hip_adduction_l	hip_rotation_l	knee_angle_l	ankle_angle_l	subtalar_angle_l	mtp_angle_l	lumbar_extension	lumbar_bending	lumbar_rotation	neck_flexion	neck_lateral_bending	neck_rotation	arm_flex_r	arm_add_r	arm_rot_r	elbow_flex_r	pro_sup_r	wrist_flex_r	wrist_dev_r	hand_finger_flex_r	arm_flex_l	arm_add_l	arm_rot_l	elbow_flex_l	pro_sup_l	wrist_flex_l	wrist_dev_l	hand_finger_flex_l
      0.00250000	      4.60804956	    -18.99465604	     90.78719848	      0.01245128	      1.95935289	      1.88235294	     64.30560256	    -10.71525433	     -4.42259070	    -92.13908373	     36.87038418	      7.64539014	    -30.52879477	     65.16205461	    -12.26238510	     -0.42092154	    -92.18772830	     41.97878976	     -3.08205224	    -37.70399351	    -21.78704994	      2.76871881	     -0.69517772	     14.64499724	     -0.22801001	      7.71634495	    -11.50347753	     -9.84780544	    -25.67008229	     53.36609795	     95.28527158	     -5.41191375	    -16.51368245	     29.13540742	     -8.70807791	    -14.51173041	    -19.31931422	     54.64653685	    109.34516066	    -33.62228175	     -2.28398170	     66.13871362
      0.00500000	      4.61176348	    -18.90366546	     90.73091395	      0.01266828	      1.95692929	      1.88257926	     64.51807083	    -10.75971385	     -4.43278051	    -92.66295052	     37.03532971	      7.62663718	    -30.53308203	     65.36555225	    -12.36510575	     -0.36568613	    -92.71785578	     42.05327620	     -3.08743126	    -37.69780501	    -22.06805223	      2.72861686	     -0.68288660	     14.75159283	     -0.21949449	      7.79893277	    -11.49617621	     -9.82572632	    -25.65822100	     53.36361145	     95.25441445	     -5.39154843	    -16.53787402	     29.13027902	     -8.73754481	    -14.58549235	    -19.30480389	     54.50586364	    109.35343635	    -33.57614725	     -2.24112180	     66.15018386
      0.00750000	      4.63586573	    -19.03154018	     90.63447031	      0.01296792	      1.95397702	      1.88306992	     64.98984380	    -10.72853733	     -4.40039652	    -93.18184065	     37.39473721	      7.71035026	    -30.59548386	     65.84532018	    -12.55432532	     -0.35493862	    -93.29200279	     42.23188292	     -2.89489478	    -37.68192943	    -22.18995617	      2.70059606	     -0.58362598	     15.20950712	     -0.19402395	      8.05627193	    -11.71860910	     -9.86541468	    -25.59493230	     53.66535263	     95.13903567	     -5.21843418	    -16.77644603	     29.17695126	     -8.89487579	    -14.71693673	    -19.18159454	     54.60895013	    109.28347333	    -33.35123019	     -2.16376691	     66.30173042
      0.01000000	      4.64343941	    -18.95538592	     90.60567946	      0.01310834	      1.95158261	      1.88322582	     65.20254387	    -10.78573487	     -4.39556358	    -93.68718448	     37.43869545	      7.71552918	    -30.61274173	     66.06882169	    -12.63080626	     -0.29790422	    -93.82404855	     42.31346039	     -2.89433914	    -37.67332368	    -22.43727785	      2.66786333	     -0.57227440	     15.29317582	     -0.18661586	      8.05585236	    -11.70525726	     -9.85454772	    -25.59347863	     53.58948186	     95.12059338	     -5.20116615	    -16.79514806	     29.17903161	     -8.91977004	    -14.76080763	    -19.20194180	     54.47245818	    109.24574242	    -33.31687799	     -2.12103935	     66.32372676
      0.01250000	      4.67808206	    -19.22437275	     90.54311413	      0.01338820	      1.94834936	      1.88380720	     65.85558231	    -10.76859215	     -4.35840811	    -94.23969068	     37.58205895	      7.86039330	    -30.73241009	     66.72498614	    -12.78930404	     -0.24099011	    -94.41535343	     42.52490368	     -2.61503778	    -37.64465149	    -22.38533495	      2.65222543	     -0.49574610	     15.74596657	     -0.16265794	      8.11297763	    -11.95237566	     -9.90088441	    -25.53952215	     53.85524579	     94.99753600	     -4.96251524	    -17.13883846	     29.28911404	     -9.10772260	    -14.85634857	    -19.14780312	     54.59931287	    108.95026977	    -33.07066668	     -2.01949024	     66.57656637
      0.01500000	      4.68542894	    -19.14997924	     90.52083064	      0.01349389	      1.94597091	      1.88389599	     66.05930419	    -10.82288807	     -4.34128671	    -94.73946508	     37.63464157	      7.84759561	    -30.74912676	     66.94635598	    -12.85586620	     -0.17641687	    -94.94165537	     42.59226158	     -2.62360972	    -37.63552287	    -22.61480681	      2.62494466	     -0.49697709	     15.79606464	     -0.15811236	      8.10817109	    -11.93066750	     -9.89225467	    -25.55307418	     53.76126004	     94.97824827	     -4.95277370	    -17.15385349	     29.29489502	     -9.13068363	    -14.89607520	    -19.16500880	     54.44104926	    108.89628969	    -33.04745338	     -1.97706345	     66.60068308
      0.01750000	      4.76092507	    -19.76178620	     90.49213296	      0.01386163	      1.94207524	      1.88459935	     67.09214929	    -10.77227212	     -4.30327152	    -95.31036110	     37.73796695	      7.96858263	    -31.08321757	     68.02327583	    -13.01324832	     -0.03909621	    -95.55678682	     42.74548424	     -2.26265775	    -37.56464022	    -22.07856694	      2.65050500	     -0.44186819	     15.92082488	     -0.16928774	      8.09466583	    -12.12731873	     -9.88127795	    -25.61648896	     53.74832767	     94.68430922	     -4.66198582	    -17.61565129	     29.53381039	     -9.32141042	    -15.01641268	    -19.04114883	     54.38489922	    108.07125274	    -32.81047452	     -1.77853710	     67.10146032
      0.02000000	      4.75973815	    -19.65463324	     90.47484662	      0.01390497	      1.93970755	      1.88464649	     67.25621290	    -10.83347123	     -4.27383124	    -95.81142910	     37.81086425	      7.93149815	    -31.09527155	     68.21503824	    -13.05394477	      0.02699068	    -96.09730461	     42.80872906	     -2.30239732	    -37.55383576	    -22.35346622	      2.62090701	     -0.44053936	     15.97956607	     -0.14626499	      8.10127299	    -12.15871571	     -9.90436005	    -25.59354731	     53.76249951	     94.68119965	     -4.64821947	    -17.63485780	     29.54678335	     -9.35203982	    -15.05083816	    -19.04576928	     54.26895170	    108.03928923	    -32.82116868	     -1.76348874	     67.10770853
      0.02250000	      4.76103608	    -19.68284289	     90.46683698	      0.01391344	      1.93694519	      1.88494847	     67.60108595	    -10.88309349	     -4.21778310	    -96.34169826	     37.99802055	      7.91540111	    -31.15586729	     68.59020036	    -13.08602453	      0.09150640	    -96.65414647	     42.89755808	     -2.26399771	    -37.52384797	    -22.55013477	      2.61428603	     -0.43759250	     16.30083487	     -0.12341502	      8.15242740	    -12.38103973	     -9.95540354	    -25.54933516	     54.11601906	     94.58858407	     -4.52429291	    -17.81972446	     29.64942229	     -9.45855708	    -15.10290866	    -19.01120576	     54.31520958	    107.82920629	    -32.81917712	     -1.75412508	     67.21301571
      0.02500000	      4.76591947	    -19.59627337	     90.45376918	      0.01396027	      1.93455414	      1.88498609	     67.78325907	    -10.93024191	     -4.17083293	    -96.84042441	     38.06107512	      7.90466792	    -31.16759212	     68.81077342	    -13.13209300	      0.15985672	    -97.18861932	     42.96127240	     -2.28338900	    -37.51185134	    -22.80899457	      2.59401667	     -0.45387707	     16.40209045	     -0.11763948	      8.14978423	    -12.36402188	     -9.95580182	    -25.57229613	     54.08285797	     94.55167773	     -4.51346589	    -17.83653179	     29.66573292	     -9.47922947	    -15.14282369	    -19.02582836	     54.17548587	    107.76406864	    -32.81633066	     -1.72073602	     67.23193017
      0.02750000	      4.77733840	    -19.97097365	     90.46783716	      0.01406612	      1.93114327	      1.88555816	     68.53639625	    -10.96967287	     -4.07567907	    -97.39304430	     38.22146606	      8.08401682	    -31.41385168	     69.60750575	    -13.15015074	      0.27068760	    -97.75974520	     43.03484453	     -2.08503565	    -37.40454180	    -22.62519399	      2.60250933	     -0.45516490	     16.83903801	     -0.18895529	      8.11571307	    -12.55933142	     -9.93269886	    -25.67993910	     54.27031806	     94.00727460	     -4.23932543	    -18.11995321	     30.02396402	     -9.59811406	    -15.26112336	    -18.86106907	     54.18472946	    106.77271730	    -32.76508429	     -1.55516159	     67.65297712
      0.03000000	      4.75931067	    -19.87577755	     90.45770661	      0.01402128	      1.92854571	      1.88563102	     68.74300807	    -11.03053367	     -3.99635269	    -97.92542207	     38.35574578	      8.02471685	    -31.45070655	     69.83798066	    -13.16490249	      0.33013544	    -98.32527721	     43.07134631	     -2.11398313	    -37.37684293	    -22.89296809	      2.57055321	     -0.44692810	     16.90419023	     -0.12208379	      8.13251701	    -12.71835771	    -10.01102438	    -25.64757610	     54.52451946	     93.93224363	     -4.19199531	    -18.21861209	     30.10293227	     -9.65298106	    -15.28777000	    -18.87489520	     54.13681955	    106.60917171	    -32.82013496	     -1.54594890	     67.69245016
      0.03250000	      4.75727043	    -19.78433022	     90.43833600	      0.01402233	      1.92617356	      1.88567135	     68.91013982	    -11.07441958	     -3.92995996	    -98.41226267	     38.42789403	      8.00607868	    -31.45721582	     70.05587760	    -13.19480816	      0.39035404	    -98.85869442	     43.12890543	     -2.14501540	    -37.36353059	    -23.18056480	      2.54847669	     -0.47227993	     17.01032808	     -0.11390615	      8.12954291	    -12.69798714	    -10.01428253	    -25.67055123	     54.53701322	     93.88572317	     -4.18437386	    -18.24015579	     30.12365816	     -9.65501781	    -15.32809452	    -18.89741623	     54.02275180	    106.54046325	    -32.82741039	     -1.51780505	     67.70269531
      0.03500000	      4.70539066	    -19.81568340	     90.42506505	      0.01395727	      1.92338715	      1.88601572	     69.27262835	    -11.14453628	     -3.79156872	    -98.93876910	     38.62788740	      8.03470193	    -31.49517611	     70.43225603	    -13.16516312	      0.42299334	    -99.40168180	     43.14786132	     -2.11210939	    -37.32549932	    -23.42271474	      2.50634848	     -0.48531568	     17.47551581	     -0.11903952	      8.14804247	    -12.93223917	    -10.02138502	    -25.73731703	     54.99180720	     93.61524204	     -4.03353740	    -18.45222177	     30.28967555	     -9.72757970	    -15.34892967	    -18.95154498	     54.13792580	    106.13983251	    -32.81803958	     -1.46585547	     67.81632207
      0.03750000	      4.64097672	    -19.85543506	     90.40991784	      0.01389696	      1.92063110	      1.88630631	     69.65469103	    -11.23168580	     -3.63270947	    -99.47284862	     38.75706325	      8.11684781	    -31.55474988	     70.81000234	    -13.12989225	      0.44382092	    -99.93130265	     43.15766913	     -2.12023576	    -37.27204577	    -23.62093071	      2.43927758	     -0.51686466	     17.84027772	     -0.13486816	      8.10740854	    -13.04338686	    -10.02107999	    -25.82411591	     55.22731766	     93.25663696	     -3.88472483	    -18.59714693	     30.49948937	     -9.77705318	    -15.41911058	    -18.93993992	     54.16383349	    105.59607824	    -32.77940968	     -1.37372057	     67.95413593
      0.04000000	      4.63211862	    -19.75601470	     90.39824312	      0.01388122	      1.91824121	      1.88632670	     69.81761632	    -11.28296501	     -3.55660493	    -99.94951118	     38.81725888	      8.10313359	    -31.55897060	     71.01695133	    -13.14941809	      0.49473358	   -100.45854252	     43.20768059	     -2.16235559	    -37.25825533	    -23.90390980	      2.40761026	     -0.53168459	     17.90125665	     -0.11815075	      8.09552387	    -13.00483708	    -10.05664610	    -25.85332318	     55.22495320	     93.19905981	     -3.87492310	    -18.61133003	     30.52802874	     -9.76372503	    -15.47320580	    -18.96007362	     54.05871164	    105.50605658	    -32.78119325	     -1.34631357	     67.96069591
